<svg width="24" height="24" viewBox="0 0 24 24" fill="none" xmlns="http://www.w3.org/2000/svg">
<path d="M20.5715 19.7143L20.5715 4.28572C20.5715 3.60374 20.3005 2.94968 19.8183 2.46745C19.3361 1.98521 18.682 1.71429 18 1.71429L7.71431 1.71429C7.03233 1.71429 6.37827 1.98521 5.89604 2.46745C5.4138 2.94968 5.14288 3.60374 5.14288 4.28572L5.14288 12.8572C5.14288 13.0845 5.23319 13.3025 5.39393 13.4632C5.55468 13.624 5.7727 13.7143 6.00003 13.7143C6.22735 13.7143 6.44537 13.624 6.60612 13.4632C6.76686 13.3025 6.85717 13.0845 6.85717 12.8572L6.85717 4.28572C6.85717 4.05839 6.94748 3.84038 7.10822 3.67963C7.26897 3.51889 7.48698 3.42858 7.71431 3.42858L18 3.42858C18.2274 3.42858 18.4454 3.51889 18.6061 3.67963C18.7669 3.84038 18.8572 4.05839 18.8572 4.28572L18.8572 19.7143C18.8572 19.9416 18.7669 20.1596 18.6061 20.3204C18.4454 20.4811 18.2274 20.5714 18 20.5714L10.2857 20.5714C10.0584 20.5714 9.84039 20.6617 9.67965 20.8225C9.5189 20.9832 9.4286 21.2013 9.4286 21.4286C9.4286 21.6559 9.5189 21.8739 9.67965 22.0347C9.84039 22.1954 10.0584 22.2857 10.2857 22.2857L18 22.2857C18.682 22.2857 19.3361 22.0148 19.8183 21.5326C20.3005 21.0503 20.5715 20.3963 20.5715 19.7143Z" fill="white"/>
<path d="M3.42855 22.2857C3.65586 22.2856 3.87385 22.1953 4.03455 22.0346L12.8571 13.212L14.8226 15.1774C14.9833 15.3382 15.2012 15.4285 15.4286 15.4286C15.5412 15.4289 15.6528 15.4068 15.7568 15.3634C15.9134 15.2985 16.0472 15.1886 16.1414 15.0476C16.2355 14.9066 16.2857 14.7409 16.2857 14.5714L16.2857 9.42855C16.2857 9.20123 16.1954 8.98321 16.0346 8.82246C15.8739 8.66172 15.6559 8.57141 15.4286 8.57141L10.2857 8.57141C10.1162 8.57145 9.95051 8.62174 9.80959 8.71592C9.66867 8.81011 9.55883 8.94396 9.49397 9.10056C9.42911 9.25716 9.41214 9.42948 9.4452 9.59572C9.47826 9.76197 9.55986 9.91468 9.6797 10.0346L11.6451 12L2.82255 20.8226C2.70272 20.9424 2.62111 21.0951 2.58805 21.2614C2.555 21.4276 2.57197 21.5999 2.63683 21.7565C2.70169 21.9131 2.81152 22.047 2.95245 22.1412C3.09337 22.2354 3.25905 22.2857 3.42855 22.2857Z" fill="white"/>
</svg>
